<svg width="15" height="15" viewBox="0 0 15 15" fill="none" xmlns="http://www.w3.org/2000/svg">
<g clip-path="url(#clip0_203_46)">
<path d="M7.5001 0.600098C3.69289 0.600098 0.600098 3.69289 0.600098 7.5001C0.600098 11.3073 3.69289 14.4001 7.5001 14.4001C11.3073 14.4001 14.4001 11.3073 14.4001 7.5001C14.4001 3.69289 11.3073 0.600098 7.5001 0.600098ZM7.5001 1.2001C10.983 1.2001 13.8001 4.01715 13.8001 7.5001C13.8001 10.983 10.983 13.8001 7.5001 13.8001C4.01715 13.8001 1.2001 10.983 1.2001 7.5001C1.2001 4.01715 4.01715 1.2001 7.5001 1.2001ZM7.2001 3.9001V7.2001H3.9001V7.8001H7.2001V11.1001H7.8001V7.8001H11.1001V7.2001H7.8001V3.9001H7.2001Z" fill="#4E53CC"/>
</g>
<defs>
<clipPath id="clip0_203_46">
<rect width="15" height="15" fill="white"/>
</clipPath>
</defs>
</svg>
